<svg version="1.1" id="Layer_1" xmlns="http://www.w3.org/2000/svg" xmlns:xlink="http://www.w3.org/1999/xlink" x="0px" y="0px"
	 width="100%" viewBox="0 0 1024 912" enable-background="new 0 0 1024 912" xml:space="preserve">
<path fill="#000000" opacity="1.000000" stroke="none" 
	d="
M1025.000000,3.500000 
	C1022.932129,3.103656 1020.740601,3.347542 1018.587402,3.347452 
	C683.031921,3.333390 347.476471,3.329114 11.921000,3.315596 
	C8.590531,3.315462 5.260067,3.198114 1.464800,3.067743 
	C1.411838,2.372586 0.026278,0.878461 2.000656,0.988193 
	C3.163730,1.052835 4.333333,1.000000 5.500000,1.000000 
	C343.833344,1.000000 682.166687,0.996187 1020.499939,1.141270 
	C1021.788879,1.141822 1025.127441,-1.328458 1025.000000,3.500000 
z"/>
<path fill="#000000" opacity="1.000000" stroke="none" 
	d="
M70.944565,525.901733 
	C68.385498,519.353760 65.756851,513.224304 63.643303,506.922150 
	C60.499546,497.548218 55.547791,489.355499 48.319256,482.677643 
	C30.733662,466.431671 31.362585,443.959198 42.568565,424.683685 
	C42.903168,424.108124 43.255848,423.539276 43.645576,423.000183 
	C48.539799,416.230133 52.704544,409.893097 52.469780,400.347778 
	C52.196308,389.228210 58.746273,379.139923 62.796940,368.777832 
	C71.126144,347.470642 80.918587,326.901245 94.348618,308.236572 
	C103.667328,295.285675 114.473442,283.774261 127.670464,274.740173 
	C140.313797,266.085083 151.146164,255.696762 160.355743,243.443558 
	C171.023346,229.250473 183.975281,217.185211 200.364044,210.324753 
	C212.488998,205.249161 224.373230,198.889893 237.919678,197.523010 
	C250.323166,196.271454 260.668640,190.048370 269.961975,182.267532 
	C292.187866,163.658920 317.060303,150.464600 345.398315,143.937195 
	C355.982666,141.499176 366.674774,140.205215 377.514984,139.755142 
	C387.152008,139.355026 396.790741,138.822006 406.402252,138.027405 
	C418.027924,137.066299 429.322693,134.099365 440.746887,131.907501 
	C457.274475,128.736481 473.976624,128.326340 490.352844,132.100418 
	C506.020538,135.711182 521.114990,133.514786 536.243347,130.014282 
	C546.238037,127.701630 556.254639,126.766075 566.447327,127.781578 
	C571.019592,128.237122 575.143860,130.123642 578.941772,132.525421 
	C586.077881,137.038330 593.846924,138.901566 602.183350,138.876526 
	C618.496338,138.827545 634.870239,138.047104 650.775024,142.926132 
	C663.714844,146.895660 675.934326,152.609238 688.084167,158.457993 
	C707.259644,167.688736 727.770569,172.889236 748.065247,178.815170 
	C766.841064,184.297607 783.994629,192.937378 798.383850,206.506378 
	C799.339783,207.407867 800.401428,208.355026 801.593628,208.824066 
	C814.195374,213.781693 822.399841,223.458008 827.570312,235.261810 
	C835.879517,254.231125 848.190308,269.532654 864.454346,282.254242 
	C879.549927,294.061920 890.451965,309.406738 897.476318,327.291107 
	C903.317078,342.162140 910.922668,355.809967 921.948486,367.573578 
	C930.002930,376.167023 935.490295,386.466095 939.566101,397.539307 
	C943.855591,409.192871 949.705505,419.914612 958.203125,429.184570 
	C966.626587,438.373718 971.535095,449.448700 973.501465,461.725647 
	C975.976990,477.181458 979.769409,492.281250 984.640564,507.152863 
	C987.104126,514.674194 986.318909,522.156006 983.544739,529.645569 
	C979.502930,540.557617 981.107605,551.682190 983.630005,562.630371 
	C986.510742,575.133789 989.160217,587.586548 988.490295,600.576721 
	C987.359863,622.496399 980.187744,642.567322 970.317932,661.833801 
	C955.092285,691.555359 932.915955,714.273621 902.410400,728.425415 
	C891.625854,733.428528 880.327026,736.841309 868.513245,738.310059 
	C864.648254,738.790649 863.174377,740.865417 861.770447,744.364441 
	C849.669006,774.525574 833.097107,800.775452 802.555237,816.141602 
	C784.918762,825.014771 767.442322,833.796143 747.897583,837.401489 
	C729.031677,840.881592 709.999146,842.644531 690.778442,841.659851 
	C675.421265,840.873047 660.234436,839.192810 645.819336,833.335510 
	C643.221802,832.280029 640.634399,831.199646 637.269043,829.811951 
	C636.727661,836.969177 638.963196,843.005249 641.158997,848.952942 
	C644.612244,858.307129 648.903564,867.341003 651.153687,877.145325 
	C652.219055,881.787231 652.512451,886.408691 651.913940,891.033447 
	C650.489319,902.041199 642.183105,907.596069 631.177124,905.719177 
	C615.773621,903.092468 605.550476,893.671509 597.835327,880.940369 
	C587.951111,864.630066 581.562927,846.662476 573.844055,829.330322 
	C564.075134,807.394775 553.889099,785.739807 539.289246,766.425171 
	C529.719727,753.765320 517.902039,743.633423 505.352966,734.192261 
	C499.965424,730.139099 495.357300,725.354309 492.159851,719.380310 
	C490.842133,716.918274 489.344238,716.293579 486.537994,716.954346 
	C468.567688,721.185486 450.646057,725.694763 432.361969,728.424072 
	C404.924255,732.519836 377.667603,733.145630 350.926086,723.970642 
	C336.393951,718.984741 323.794312,710.546326 311.262848,702.018005 
	C293.906708,690.206482 276.844452,677.971313 260.256561,665.096497 
	C248.725815,656.146912 241.488098,644.402710 238.969650,630.032776 
	C237.974121,624.352478 235.563278,619.690491 231.870422,615.469543 
	C228.244827,611.325500 224.743439,607.115051 223.324799,601.571167 
	C222.598785,598.734009 220.051697,598.014343 217.579300,597.400696 
	C210.532394,595.651794 203.347916,596.067810 196.193497,596.109375 
	C186.706711,596.164490 177.232346,596.230774 167.925034,593.905457 
	C159.776688,591.869751 152.487289,588.109314 147.143173,581.677002 
	C135.272903,567.389832 119.631508,559.532349 102.474632,553.729736 
	C88.341225,548.949585 77.245392,540.329407 70.944565,525.901733 
M688.495178,167.572739 
	C676.783997,161.953720 664.960815,156.631744 652.713562,152.223969 
	C636.278259,146.308929 619.258301,147.191055 602.291626,147.277283 
	C592.528992,147.326904 583.511902,144.912811 575.253174,139.742126 
	C572.227234,137.847672 568.959045,136.772522 565.478210,136.156784 
	C551.597961,133.701447 538.627380,138.503677 523.856995,140.905396 
	C536.826538,150.914719 544.961121,162.582245 545.648438,178.711487 
	C553.250122,174.538757 560.497009,172.023407 567.504761,168.954559 
	C570.452332,167.663773 573.044739,166.454330 571.294739,161.982971 
	C569.712891,157.941132 572.798706,153.453064 577.195801,151.773865 
	C581.097351,150.283936 585.359070,152.025345 587.816223,156.059799 
	C590.384583,160.276810 589.250732,164.355865 585.671814,166.652481 
	C579.962769,170.316071 574.943665,175.105972 568.414368,177.515976 
	C563.731445,179.244476 559.088684,181.128403 554.574036,183.253311 
	C549.830322,185.486008 545.296570,188.425293 543.619324,193.649460 
	C537.077454,214.026367 525.039429,230.349274 507.935791,243.020569 
	C480.593323,263.277283 474.980316,295.193756 484.147583,323.992981 
	C484.570160,325.320618 484.937042,326.710815 486.266602,327.188080 
	C490.593201,328.741302 493.541138,332.443115 497.629578,334.312378 
	C500.639893,335.688660 502.684906,337.650940 502.131470,341.215729 
	C501.694305,344.031586 499.715942,345.651733 497.066010,346.040680 
	C493.550842,346.556671 491.637665,344.411682 490.243317,341.410004 
	C486.308044,332.938416 478.217468,332.002106 472.546997,339.279724 
	C469.358185,343.372314 465.067719,344.437988 461.147461,342.111206 
	C457.145020,339.735718 455.599060,335.101776 457.391266,330.852081 
	C459.181702,326.606567 463.311127,324.722046 468.169189,325.933563 
	C475.900024,327.861511 476.147491,327.635986 474.678619,319.876190 
	C474.524902,319.064026 474.235748,318.278320 474.030243,317.475006 
	C471.652039,308.177948 470.880554,298.694519 472.197571,289.240326 
	C475.236084,267.428925 485.425507,249.722031 503.323761,236.555298 
	C516.052429,227.191559 525.871460,215.298615 532.248718,200.822662 
	C535.599915,193.215652 538.362671,185.204071 537.276489,176.700394 
	C534.811462,157.402878 521.144958,144.292770 501.636871,142.016922 
	C498.661102,141.669754 495.685791,141.269180 492.738281,140.737869 
	C476.433899,137.798874 460.182159,136.278091 443.693512,139.895218 
	C422.059113,144.641159 400.223846,147.752609 377.970612,148.225464 
	C340.844574,149.014374 308.188934,162.235870 279.287109,185.308807 
	C267.928986,194.376236 256.307526,203.668777 241.266083,205.125992 
	C228.470612,206.365646 217.497650,212.533691 205.895508,216.675110 
	C191.482635,221.819839 179.755096,232.080460 170.285706,244.180695 
	C158.918350,258.706238 146.326370,271.587067 131.123032,282.325653 
	C106.019859,300.056854 90.810585,325.616943 78.644714,353.230103 
	C85.288490,343.903381 93.174973,336.002502 103.596634,330.971313 
	C118.626198,323.715607 133.973602,317.327240 150.504944,314.309296 
	C153.100067,313.835541 155.188843,313.126953 156.141617,310.247284 
	C163.037491,289.405487 174.830246,271.152649 187.644241,253.707565 
	C204.298828,231.033905 225.907257,215.927277 255.233505,214.870682 
	C258.355164,214.758209 260.227753,213.277283 261.573578,210.818985 
	C266.687286,201.478073 274.920013,195.616791 284.062531,190.913773 
	C313.061066,175.996582 344.375946,174.644791 376.067932,175.208923 
	C386.450684,175.393738 396.836884,178.267288 407.272858,175.214233 
	C409.649139,174.519058 411.763123,175.998428 413.072754,178.238541 
	C414.400513,180.509689 414.240417,182.715805 412.714722,184.786331 
	C411.185181,186.862167 409.070129,187.638824 406.547180,187.097794 
	C404.443512,186.646683 402.671936,185.322586 400.412415,185.109360 
	C370.598145,182.295990 340.862518,181.547485 311.583099,189.293793 
	C293.819977,193.993317 276.773956,200.063873 266.715363,217.302704 
	C264.349060,221.358200 260.363739,223.558228 255.775497,223.127563 
	C241.884659,221.823746 230.735306,228.563873 219.282974,234.740585 
	C204.595581,242.662079 195.487762,255.727020 186.700180,269.202332 
	C174.447723,287.990845 163.159637,307.186401 159.642776,329.846680 
	C158.879211,334.766510 158.190186,339.406433 163.254166,343.248383 
	C167.548294,346.506287 167.207855,353.079132 163.596130,357.166321 
	C160.103180,361.119110 154.295792,361.816467 150.004715,358.798309 
	C145.453949,355.597534 143.414078,349.255524 146.940643,345.273499 
	C152.902008,338.542206 149.730270,330.445129 152.501465,322.845581 
	C150.134796,323.062134 148.620316,322.996033 147.217789,323.360565 
	C132.507996,327.184204 118.079628,331.967560 104.927864,339.626801 
	C86.946373,350.098663 77.588562,365.874695 78.155746,387.026276 
	C78.264442,391.079681 78.993401,394.391876 84.172356,395.158051 
	C86.575722,395.513641 88.760231,397.713348 90.923225,399.247314 
	C94.595123,401.851379 98.144180,404.684357 102.418137,406.227173 
	C104.539742,406.993042 107.341026,408.638458 109.036049,406.966522 
	C112.793144,403.260620 118.115372,400.936981 119.227600,394.690186 
	C120.341057,388.436493 126.267975,384.830536 131.859695,386.135803 
	C137.334000,387.413666 141.052032,393.388153 139.742691,398.802948 
	C138.241653,405.010498 132.839142,408.196228 126.291664,406.313232 
	C123.651199,405.553833 121.945557,406.104279 120.054100,407.886139 
	C112.310585,415.180939 105.928886,423.529297 101.787483,433.286926 
	C92.807236,454.445435 96.872917,478.573853 116.953598,491.926208 
	C121.381126,494.870209 125.644882,498.133789 129.630325,501.651001 
	C134.763885,506.181458 139.458740,511.196472 141.857513,517.832031 
	C142.721268,520.221313 142.603104,522.559204 139.857895,523.738708 
	C137.418961,524.786682 135.527740,523.822083 134.599823,521.466309 
	C130.985718,512.290955 123.597748,506.609528 115.992828,501.112915 
	C110.586227,497.205200 105.086197,493.359253 100.910233,488.085114 
	C88.103371,471.910126 86.446869,453.952698 92.632408,434.777374 
	C94.840012,427.933777 98.719505,421.918854 102.517761,415.444153 
	C95.275589,411.996582 89.015381,407.946198 82.998398,403.506042 
	C82.369705,403.042053 81.355728,402.561371 80.707802,402.745941 
	C74.481766,404.519440 67.608292,405.457672 63.135506,410.531799 
	C56.091301,418.523010 49.104259,426.812988 45.527470,437.030701 
	C40.571938,451.186981 41.487103,464.560028 52.767094,475.894135 
	C56.050079,479.192902 59.325275,482.496979 62.094196,486.303680 
	C69.084991,495.914612 72.308311,507.189453 76.345039,518.084839 
	C80.798866,530.105957 88.236664,539.137146 100.346489,543.996582 
	C108.843704,547.406372 117.316612,550.879761 125.754166,554.434448 
	C135.687775,558.619385 143.158051,565.978149 150.323166,573.728210 
	C156.588226,580.504761 163.956863,585.278381 173.322266,586.740601 
	C188.817673,589.159729 204.562073,586.147888 219.821625,589.372437 
	C220.201584,588.788940 220.477982,588.534729 220.538513,588.236633 
	C220.669922,587.589417 220.791214,586.912292 220.742493,586.260437 
	C219.847794,574.290833 222.339691,563.062866 228.298584,552.664368 
	C229.801941,550.040894 228.650284,548.696594 226.669891,547.346008 
	C220.796829,543.340698 214.198181,541.005920 207.401596,539.285706 
	C193.777939,535.837708 181.452988,530.248779 171.118240,520.310059 
	C157.089523,506.818970 151.226624,491.226105 156.342010,471.961548 
	C158.561035,463.604675 160.674026,455.144958 159.727066,446.343323 
	C159.408554,443.382812 159.203751,440.737305 155.099442,439.812714 
	C148.709579,438.373169 145.323151,432.100159 147.024811,426.428619 
	C148.559769,421.312622 154.512924,418.089478 159.827545,419.496979 
	C165.399261,420.972534 168.417816,426.523926 166.962524,432.984131 
	C166.555649,434.790283 165.952835,436.518433 166.495300,438.360046 
	C169.637802,449.028595 167.526428,459.410370 165.081802,469.862213 
	C162.402817,481.316101 160.455154,492.838074 167.784927,503.548431 
	C176.342789,516.053223 187.473541,525.140076 202.219147,529.378235 
	C212.621613,532.368103 223.236542,534.826111 232.120026,541.526184 
	C233.872726,542.848145 235.109238,542.354614 236.332504,540.797180 
	C247.254929,526.890442 261.453613,516.544312 274.888458,505.368683 
	C281.104736,500.197693 287.326477,495.033203 293.388000,489.996826 
	C292.417297,487.319977 290.565582,486.371552 289.036316,485.133972 
	C278.558472,476.655396 266.219299,471.442535 254.313675,465.495697 
	C239.096436,457.894714 224.803665,449.234497 215.792511,434.064178 
	C214.980606,432.697327 213.661087,432.023071 212.327042,431.312164 
	C208.374649,429.205963 206.885681,425.962982 208.436905,421.714600 
	C209.708252,418.232727 214.161667,416.136871 217.445572,417.179810 
	C221.434341,418.446564 223.763184,422.128387 222.824966,426.542480 
	C222.351837,428.768463 222.794525,430.475433 223.997711,432.141907 
	C226.923721,436.194611 230.019730,440.052856 233.868332,443.353821 
	C243.749710,451.829010 255.489792,457.052155 266.961517,462.762543 
	C277.859406,468.187347 288.803223,473.559296 297.826996,481.951416 
	C300.129089,484.092346 301.671021,483.521240 303.785645,481.781311 
	C311.638947,475.319397 319.797333,469.268646 328.748260,464.367767 
	C332.209625,462.472534 335.666687,460.569458 339.334564,458.555298 
	C338.563629,457.156067 338.082642,456.107391 337.449432,455.160461 
	C329.587402,443.403473 326.418427,430.380341 326.668884,416.344757 
	C326.856140,405.847900 326.701050,395.345367 326.825806,384.846863 
	C327.018127,368.665833 322.975250,353.588348 315.527405,339.290710 
	C313.759094,335.896088 311.979431,333.802490 307.601562,334.106903 
	C302.810211,334.440094 299.224762,330.756317 298.822449,326.303101 
	C298.435608,322.021210 301.586823,317.735931 305.930847,316.636536 
	C309.951904,315.618896 314.711456,318.223236 316.122620,322.695374 
	C317.145752,325.937775 318.814148,328.737915 320.489777,331.622528 
	C329.603302,347.311829 334.604156,364.167877 335.176758,382.389557 
	C335.595276,395.707458 333.624298,408.991547 335.041504,422.320618 
	C336.112335,432.392242 338.372650,441.964081 344.102112,450.532623 
	C346.720032,454.447784 349.729858,455.394470 354.316254,454.022583 
	C369.854431,449.374725 385.471802,449.601898 401.103302,453.946045 
	C412.959961,457.241119 424.701111,461.088501 437.016235,462.444305 
	C440.821869,462.863251 444.555756,463.289154 447.701447,459.992004 
	C453.494568,453.919891 460.328705,449.132721 467.700317,445.171295 
	C470.409760,443.715240 470.710632,442.194489 469.246582,439.613068 
	C466.693298,435.110962 464.732269,430.341309 463.755066,425.207062 
	C462.159210,416.822357 460.006714,408.636932 455.102234,401.446198 
	C453.479736,399.067322 453.685699,396.752441 455.643585,394.613586 
	C457.468231,392.620209 459.545563,391.445190 462.287659,392.680542 
	C464.997894,393.901459 466.860657,396.080719 466.064850,398.976929 
	C465.072266,402.589355 466.438446,405.572266 467.656647,408.572876 
	C469.425262,412.929382 470.447876,417.439117 471.417755,421.998749 
	C472.495514,427.065277 474.227234,431.870453 476.714081,436.479980 
	C478.196838,439.228333 479.660187,439.486816 482.267975,438.410309 
	C499.985748,431.096313 518.772339,426.860809 536.533386,419.679718 
	C543.896851,416.702515 551.613892,414.826324 559.693298,412.352600 
	C554.255737,402.078094 557.549500,392.848602 561.481445,383.670959 
	C561.743225,383.060089 561.869873,382.389862 562.146179,381.786987 
	C563.260620,379.355072 563.209106,377.249664 561.633667,374.801422 
	C558.861023,370.492798 560.214539,365.216980 564.272949,362.591614 
	C568.125916,360.099152 572.524170,360.723694 575.541321,364.191589 
	C579.066589,368.243530 578.816589,372.665924 574.985718,376.677521 
	C568.373718,383.601349 565.714783,392.261475 565.347412,401.473785 
	C565.095947,407.778351 566.992920,412.068604 575.564880,412.037292 
	C598.947205,411.951813 622.195190,413.669037 643.890503,423.767914 
	C646.455444,424.961823 647.835510,424.331818 648.983276,421.889252 
	C653.434021,412.417847 661.061340,405.738586 668.870483,399.143433 
	C683.221069,387.023743 700.386963,377.610748 707.502075,358.463715 
	C708.795471,354.983307 712.587097,354.854523 715.594299,357.147369 
	C718.627502,359.460022 719.308228,363.106659 716.427185,365.325043 
	C710.643860,369.778076 707.255127,376.154114 702.245667,381.216034 
	C691.059692,392.519012 677.977905,401.525635 666.199219,412.080353 
	C661.823242,416.001617 658.310791,420.647461 656.070251,426.157227 
	C655.438293,427.711090 654.371887,429.740662 655.808228,430.835754 
	C661.367004,435.073761 663.843506,442.285217 670.374329,445.550354 
	C675.105530,447.915710 676.784729,452.813721 674.675354,457.382263 
	C672.773865,461.500580 667.574036,463.528564 663.202393,461.856750 
	C659.092468,460.285065 656.573792,455.236816 658.375977,450.669159 
	C659.612854,447.534393 658.566589,445.580872 656.725098,443.516479 
	C651.310547,437.446289 644.775024,432.953705 637.319397,429.747589 
	C625.547852,424.685486 613.059143,422.885773 600.464050,421.437775 
	C582.130127,419.330017 563.765381,418.265930 546.126160,424.837799 
	C528.797180,431.294067 511.152496,436.752289 493.673676,442.728485 
	C482.606995,446.512268 471.912170,451.106110 462.373230,458.033783 
	C457.491455,461.579163 453.109436,465.688416 449.425232,470.447327 
	C445.641022,475.335266 443.636597,480.857727 444.204895,487.212891 
	C444.489655,490.397064 442.874084,492.630676 439.752075,493.624329 
	C436.889038,494.535522 434.845459,493.185822 433.355103,490.982605 
	C431.647614,488.458374 431.896759,485.968842 434.113068,483.750946 
	C437.646912,480.214600 436.574066,474.999603 439.857697,470.564880 
	C422.967499,470.030426 408.395966,463.873993 393.188812,460.478149 
	C388.951172,459.531830 384.656952,459.131439 380.304169,459.001129 
	C362.067749,458.455109 345.529785,463.958160 329.970612,472.958801 
	C319.399261,479.074127 309.979523,486.777405 300.674896,494.614990 
	C282.469330,509.950043 262.863770,523.665039 246.487259,541.117371 
	C236.043137,552.247620 228.910263,564.910522 228.917572,580.739746 
	C228.919113,584.062561 229.622589,586.039429 233.380371,587.225647 
	C239.761536,589.239990 241.119553,596.926025 236.511078,601.898682 
	C235.645950,602.832153 234.076843,603.172241 233.982834,604.891296 
	C234.783127,607.280457 236.728699,608.943726 238.383072,610.773193 
	C242.739700,615.591248 245.913345,621.107483 246.847015,627.493713 
	C248.966339,641.989441 256.972992,652.557434 268.299316,661.061401 
	C287.352692,675.367126 306.634827,689.339294 326.481964,702.548279 
	C346.782318,716.059082 368.939453,722.503601 393.277344,723.090271 
	C420.074127,723.736145 445.833374,717.963562 471.670685,712.251953 
	C493.236969,707.484436 514.454102,700.522278 536.977905,701.768982 
	C539.511292,701.909119 541.569763,699.311951 544.170410,700.581726 
	C547.518311,702.216370 551.046387,701.667786 554.497559,701.535156 
	C573.041565,700.822815 591.407654,701.762695 609.460388,706.539124 
	C621.051025,709.605652 632.711731,712.367310 644.793152,712.733459 
	C661.893433,713.251526 677.979736,708.277588 694.216309,703.917480 
	C706.947754,700.498596 719.847290,697.471313 733.002563,701.709534 
	C738.660339,703.532166 744.390503,703.753601 750.221436,703.991272 
	C760.704163,704.418518 771.210571,705.315613 781.429199,707.608398 
	C806.239380,713.175171 830.564880,720.906921 855.922913,724.041382 
	C858.698547,724.384460 861.500244,725.529785 863.142578,728.104187 
	C864.665649,730.491821 866.583191,730.618774 869.155823,730.174500 
	C893.842590,725.911377 915.134155,714.905334 933.372314,697.900391 
	C954.294739,678.392822 967.415527,654.151794 975.550720,627.044495 
	C980.138367,611.757812 982.409668,596.269714 978.878967,580.285217 
	C976.621643,570.065430 974.440247,559.803833 973.303772,549.362061 
	C972.519165,542.152832 972.358521,534.581604 975.035461,528.167664 
	C978.121338,520.773682 978.374268,513.928772 975.978027,506.860931 
	C971.151550,492.625244 967.954468,478.036682 965.539795,463.246948 
	C963.604309,451.391937 958.397278,441.187347 950.378845,432.306122 
	C943.727356,424.938934 938.612488,416.570679 934.979248,407.344055 
	C929.268433,392.841248 922.557861,378.991119 911.524109,367.596619 
	C902.935303,358.727142 896.982483,348.118835 892.751953,336.598297 
	C885.335815,316.402618 873.630493,299.312042 856.630066,286.026367 
	C841.234619,273.995056 829.473450,259.355072 821.679138,241.246689 
	C816.811646,229.938141 809.677734,220.012268 797.018860,215.794281 
	C795.694824,215.353119 794.586914,214.078049 793.535828,213.032059 
	C784.666321,204.205566 774.253662,197.779541 762.783142,192.912476 
	C741.722473,183.976212 718.956665,180.302383 697.284241,171.368561 
	C694.614441,170.046707 692.083618,168.383270 688.495178,167.572739 
M779.284546,818.768494 
	C787.695984,814.372314 796.174255,810.098328 804.499512,805.544617 
	C812.413025,801.216064 819.940613,796.327576 825.823120,789.269165 
	C835.359619,777.826172 843.430298,765.406006 850.201965,752.179749 
	C853.283752,746.160522 855.666870,739.762939 855.014038,732.312561 
	C851.814453,731.650513 848.765747,730.857788 845.667175,730.406738 
	C833.144165,728.583984 820.675842,726.562256 808.512268,722.918762 
	C795.272766,718.952881 781.792297,716.171448 768.154602,713.773376 
	C755.397766,711.530151 742.393799,713.528076 729.678284,709.476562 
	C716.887878,705.401184 703.896545,709.157043 691.496033,713.145996 
	C665.685303,721.448547 639.736694,723.731506 613.405334,716.048584 
	C593.855164,710.344360 573.884460,708.611572 553.629700,709.291199 
	C552.354187,709.333984 550.929993,708.973816 549.813660,710.292847 
	C549.712585,712.693298 551.162292,714.612427 552.291687,716.569092 
	C558.361145,727.084351 566.862427,735.210632 577.622192,740.695129 
	C581.779602,742.814270 583.702942,745.154419 583.214417,749.933716 
	C582.138489,760.459900 585.434814,769.963745 590.901245,778.812500 
	C600.519104,794.381348 614.913208,804.942749 629.409180,815.366577 
	C639.258545,822.449158 650.114014,827.227539 662.005798,829.918579 
	C682.915283,834.650269 704.026978,834.362488 725.126526,832.533447 
	C743.601868,830.931946 761.615723,826.903992 779.284546,818.768494 
M518.965881,710.242859 
	C512.515625,711.935974 505.591248,711.879150 499.155212,715.053650 
	C502.065338,720.985413 506.188751,725.110291 510.976013,728.438660 
	C532.484192,743.392029 548.685791,762.972961 561.559326,785.561096 
	C573.052673,805.727539 581.412964,827.338379 590.819763,848.468933 
	C596.365112,860.925293 601.096252,873.842407 610.023804,884.473022 
	C616.341309,891.995728 624.054260,897.323242 634.220215,897.827820 
	C640.988892,898.163757 643.499573,895.421265 643.832458,888.702393 
	C644.256592,880.142334 641.810120,872.273560 638.657288,864.498718 
	C633.716309,852.314270 628.441956,840.203003 628.790771,826.633484 
	C628.841675,824.652588 627.397461,823.750854 626.001892,822.804382 
	C616.330078,816.245361 607.147095,809.030884 598.776062,800.902588 
	C585.028931,787.554077 574.792480,772.305176 574.878845,752.137878 
	C574.891846,749.117554 573.285706,747.797485 570.991272,746.406738 
	C557.958618,738.507141 548.000977,727.758179 541.936096,713.704773 
	C540.438843,710.235291 538.104919,709.502136 534.860779,709.637756 
	C529.868896,709.846436 524.874023,709.984131 518.965881,710.242859 
M71.274178,395.247406 
	C69.376389,387.865082 69.136040,380.410858 70.325195,372.835205 
	C66.694901,382.013397 61.470917,390.597656 60.616776,401.759888 
	C64.410278,399.093689 68.403397,398.800476 71.274178,395.247406 
z"/>
<path fill="#000000" opacity="1.000000" stroke="none" 
	d="
M697.528870,171.563049 
	C700.983948,173.832413 703.984436,176.388474 707.441956,177.897003 
	C720.839417,183.742233 734.342346,189.353149 747.898499,194.822067 
	C751.400513,196.234879 755.097961,197.034988 759.038757,195.292496 
	C761.640076,194.142273 763.892883,195.777740 765.303284,198.121826 
	C766.621338,200.312500 766.622864,202.596802 765.000000,204.660660 
	C763.289734,206.835632 761.089294,207.655075 758.354797,206.714645 
	C736.686646,199.262466 715.217285,191.419205 695.102905,180.172852 
	C680.961487,172.266098 665.619690,169.133560 649.351318,170.920990 
	C643.788086,171.532242 639.078491,173.666061 635.108337,177.460098 
	C628.040039,184.214767 623.514038,192.405289 621.668945,202.032928 
	C621.424988,203.305496 620.976868,204.636063 622.248596,206.143036 
	C628.926758,203.132324 635.712646,200.091827 643.095276,198.716248 
	C660.795776,195.418213 678.227661,197.582581 695.668274,200.843048 
	C707.146118,202.988785 718.514526,205.326752 729.175354,210.347992 
	C738.823608,214.892319 746.891785,221.558075 754.420532,228.915222 
	C758.021057,232.433746 762.236389,233.791992 766.762817,232.351120 
	C778.185425,228.714935 789.400940,230.345703 800.660034,232.816376 
	C803.147949,233.362320 804.856140,234.814285 805.200867,237.483932 
	C805.547729,240.170898 804.939026,242.477615 802.357117,243.857544 
	C799.854980,245.194885 797.577087,244.753616 795.416809,242.994415 
	C788.557678,237.408768 777.915833,236.521957 769.175903,240.951874 
	C771.304871,242.847855 773.284851,244.402710 776.296265,243.376648 
	C779.506287,242.282898 782.275879,242.776337 783.976501,245.999893 
	C785.294556,248.498215 784.931152,250.988312 782.872925,252.857208 
	C780.222656,255.263733 776.775879,255.212738 773.985046,253.708313 
	C767.598877,250.265884 762.152649,245.141998 754.946533,243.109085 
	C754.243347,242.910706 753.578857,242.106613 753.164551,241.421539 
	C743.724243,225.810364 729.116821,217.512558 712.159241,212.772827 
	C697.370667,208.639359 682.196594,206.510025 666.913208,205.305374 
	C636.157898,202.881149 614.721191,216.203857 600.482788,243.355972 
	C590.226135,262.915131 582.862549,283.276184 579.580750,304.979401 
	C577.186279,320.814423 577.497925,336.846527 579.315918,352.798553 
	C579.410156,353.625458 579.439880,354.460266 579.483582,355.292236 
	C579.607178,357.643677 578.537598,359.205383 576.213623,359.568573 
	C573.811096,359.944031 572.220398,358.520569 571.902954,356.348969 
	C571.037842,350.430603 570.050903,344.484375 569.839478,338.523407 
	C568.447266,299.269958 578.235962,263.024414 599.500244,229.926208 
	C602.938354,224.574738 606.899780,219.655762 611.290161,215.082489 
	C612.723022,213.590012 614.086304,212.257660 613.594360,209.925354 
	C610.378601,194.677689 625.786804,168.820160 641.274475,164.351898 
	C653.317871,160.877350 665.314697,161.932846 677.277771,164.602402 
	C681.000000,165.433029 684.604431,166.791962 688.645386,167.959564 
	C692.083618,168.383270 694.614441,170.046707 697.528870,171.563049 
z"/>
<path fill="#000000" opacity="1.000000" stroke="none" 
	d="
M886.311401,621.259766 
	C886.520264,627.785339 885.229004,633.962830 889.052795,639.624756 
	C890.444092,641.684937 889.634216,644.495117 887.394897,646.359070 
	C885.406128,648.014404 883.335632,648.589539 880.991821,647.121765 
	C878.674377,645.670532 876.932922,643.422852 877.832092,640.904907 
	C879.046509,637.504456 878.188721,634.351318 878.087280,631.066223 
	C877.444641,610.266724 881.929932,590.694458 892.822571,572.857178 
	C894.716553,569.755737 894.284851,568.059753 892.107666,565.572571 
	C887.465210,560.269287 881.935974,555.975769 876.751160,551.290161 
	C870.560852,545.695923 864.896179,539.644043 860.467529,531.942200 
	C855.283142,535.752197 851.520203,540.117737 847.773865,544.495239 
	C840.692017,552.770325 835.459656,562.278381 829.745239,571.472046 
	C821.800171,584.254578 812.502686,595.631348 797.777222,601.153870 
	C794.641357,602.329773 791.506042,603.448547 788.104614,603.320312 
	C785.611633,603.226135 783.762939,604.191040 781.889587,605.867432 
	C777.780334,609.544861 772.807739,609.417175 769.333374,605.925781 
	C766.110901,602.687561 765.930664,597.637573 768.913391,594.160950 
	C772.451477,590.037048 777.282043,589.434998 781.702759,593.257629 
	C784.364563,595.559326 786.867798,595.758362 789.953674,595.020142 
	C800.829834,592.418518 809.122742,586.086670 815.868652,577.410339 
	C820.486023,571.471619 824.480896,565.113892 828.119934,558.569092 
	C836.496216,543.504639 848.638855,531.580017 860.250916,519.181885 
	C874.192322,504.296692 885.578613,487.772980 891.007202,467.848602 
	C897.684448,443.341003 893.782349,420.818909 877.986938,400.438507 
	C868.312439,387.955811 857.399902,376.251190 850.688538,361.715515 
	C846.016113,351.595734 842.160889,341.100067 837.545654,330.951965 
	C832.874573,320.680725 826.986877,311.226166 816.622742,305.575958 
	C809.702087,301.803101 802.416565,301.073456 794.873108,303.276886 
	C791.595642,304.234222 788.755859,306.053101 786.817200,308.886200 
	C782.095398,315.786682 776.899597,322.232666 770.278442,327.431763 
	C766.009155,330.784058 764.677795,335.496277 762.911621,340.504639 
	C759.867371,349.137360 762.579163,355.866486 766.656921,362.926270 
	C774.677185,376.811768 771.621216,390.183655 764.226135,403.170288 
	C762.827942,405.625580 761.243530,407.820587 760.823669,410.801392 
	C760.402344,413.793091 758.460388,415.955261 755.138611,416.189392 
	C752.061646,416.406250 750.036316,414.770447 748.972351,412.051300 
	C747.704956,408.812408 749.482178,406.728363 751.944275,404.891754 
	C761.890015,397.472687 766.381653,379.918243 760.463257,368.682922 
	C755.781677,359.795410 751.833557,350.797546 750.015503,340.896484 
	C748.963013,335.165161 745.607910,330.926483 740.902100,327.679749 
	C727.735962,318.595917 713.660767,312.595795 697.162231,313.148315 
	C685.679993,313.532806 674.227112,312.950165 663.087646,316.845123 
	C650.092651,321.388855 642.388245,331.447144 635.246887,342.258453 
	C633.977051,344.180847 634.619568,346.021271 635.233765,347.977051 
	C636.908630,353.310669 634.727234,357.892120 629.820435,359.642426 
	C625.611816,361.143707 620.853333,359.111389 618.936462,354.994049 
	C616.971619,350.773743 618.784241,345.204193 623.301880,343.124237 
	C625.795532,341.976166 627.166321,340.191528 628.534363,338.068695 
	C637.071228,324.821747 646.905945,313.038971 662.844543,308.323334 
	C665.214844,307.622040 667.608704,307.000366 670.679749,306.151733 
	C651.617249,284.682770 651.507629,263.987183 672.820190,244.212891 
	C669.847900,240.850250 667.082153,237.813858 664.425537,234.684723 
	C662.505493,232.423126 661.130798,230.018036 663.279114,227.054153 
	C664.897583,224.821152 666.921387,223.531021 669.683228,224.359528 
	C672.745728,225.278244 674.081726,227.468674 674.269409,230.724228 
	C674.594788,236.366959 679.868164,238.728317 685.145447,235.747437 
	C687.081482,234.653839 688.402649,232.974457 689.602600,231.124130 
	C691.347229,228.433777 693.854797,227.459152 696.959412,228.498367 
	C699.679565,229.408905 700.984863,231.524841 700.903625,234.241608 
	C700.805786,237.515656 698.695496,239.076492 695.643860,240.019028 
	C682.320801,244.134033 672.432495,252.476334 666.885986,265.273102 
	C660.849670,279.199982 669.406067,298.624207 683.477051,304.181274 
	C685.586914,305.014526 687.727600,304.933960 689.877625,304.885773 
	C698.903748,304.683502 708.043030,304.690704 716.678955,307.212158 
	C732.004211,311.686676 746.144714,318.502045 756.126343,332.380219 
	C759.679077,325.420868 765.360046,320.811127 770.916443,316.077515 
	C777.602234,310.381744 778.903748,303.575378 776.801636,295.016174 
	C772.390198,277.054779 759.386658,269.138184 743.264832,264.313049 
	C740.875305,263.597900 738.431824,263.013031 736.121704,262.094971 
	C733.237610,260.948730 732.325378,258.491241 732.654419,255.575043 
	C732.968811,252.788956 734.636658,250.938324 737.315735,250.352814 
	C740.046814,249.755936 742.369019,250.894882 743.588806,253.360275 
	C744.701843,255.609924 746.135498,256.996521 748.592285,257.756744 
	C767.615173,263.643219 781.151917,274.897125 785.020020,295.464996 
	C785.168579,296.254700 785.540894,297.002380 785.914124,298.070557 
	C790.769714,296.510193 795.191101,294.141998 800.238037,293.806610 
	C813.706299,292.911621 824.024292,298.913605 832.713135,308.456757 
	C839.069763,315.438477 843.959106,323.468414 847.047180,332.314209 
	C854.605774,353.965912 865.742981,373.382538 880.601318,390.894714 
	C890.011414,401.985443 897.425537,414.343414 900.530579,429.007416 
	C905.026611,450.241028 900.800354,469.968109 891.462708,489.014984 
	C885.550903,501.073761 877.827820,511.906281 868.820618,521.803894 
	C866.598938,524.245117 866.535217,526.177002 868.086121,528.855164 
	C872.251831,536.048645 878.196899,541.648071 884.255188,547.114380 
	C889.207092,551.582397 894.269592,555.929321 898.634033,560.983582 
	C900.513733,563.160461 902.228943,563.975708 905.045959,562.480164 
	C916.286926,556.512512 928.550049,557.295227 940.664795,557.591248 
	C945.343262,557.705627 947.708130,561.033142 948.580017,565.318115 
	C949.331787,569.012817 946.557190,573.241394 942.587463,574.607910 
	C938.219482,576.111633 933.829285,575.005920 932.432983,570.863403 
	C930.094238,563.924927 925.518677,565.213867 920.528015,566.000427 
	C907.364014,568.075500 898.471375,574.967590 893.917297,587.819641 
	C890.108643,598.567871 887.319458,609.446533 886.311401,621.259766 
z"/>
<path fill="#000000" opacity="1.000000" stroke="none" 
	d="
M413.188446,536.228394 
	C413.296692,543.336182 412.572083,550.013123 414.726898,556.522156 
	C417.328979,564.382202 419.415253,565.661865 427.577728,566.112427 
	C444.720245,567.058655 461.873505,567.423889 479.015594,566.913452 
	C497.849518,566.352661 516.501709,564.176697 534.430603,557.833984 
	C535.829956,557.338867 537.346558,557.122375 538.624817,555.458801 
	C536.710144,548.898071 534.654724,542.138550 534.696777,534.836914 
	C534.769836,522.118347 538.993774,511.040955 546.457458,501.021301 
	C548.744202,497.951508 551.203613,494.992706 553.778809,492.160156 
	C556.712524,488.933197 559.337585,486.114044 558.197266,480.877563 
	C557.275208,476.643402 561.634460,472.546204 565.960693,472.031189 
	C570.171753,471.529877 574.027954,474.200287 575.402893,478.570038 
	C576.652283,482.540558 574.629333,486.932556 570.621643,488.950958 
	C549.652283,499.511658 538.124817,527.026611 545.278870,549.371704 
	C546.086426,551.894043 546.979858,554.025085 550.283264,553.863831 
	C571.428955,552.831421 592.522095,555.806641 613.676758,554.688599 
	C645.959351,552.982178 678.129761,550.699707 709.055359,540.064148 
	C741.771667,528.812805 768.909302,510.423279 786.634949,479.913025 
	C793.457886,468.168915 801.387878,457.345367 811.431458,448.118774 
	C817.490540,442.552582 821.215637,435.578979 823.212280,427.625061 
	C825.317932,419.236938 827.199402,410.746338 832.688782,403.696777 
	C833.651245,402.460663 833.320129,401.299377 832.847412,399.961853 
	C830.364807,392.936829 832.110168,386.159241 834.404236,379.507812 
	C835.275574,376.981537 837.316956,375.362671 840.178528,375.589600 
	C842.704468,375.789917 844.505859,377.319305 845.514709,379.592194 
	C846.714905,382.295990 845.538757,384.406494 843.543579,386.242950 
	C840.126587,389.388092 839.065552,394.761200 841.067993,398.615173 
	C843.526306,403.346588 847.627014,405.293793 853.023499,404.069489 
	C856.203186,403.348114 858.625610,404.231537 860.335876,406.936859 
	C861.774597,409.212616 861.346619,411.334961 859.605957,413.331940 
	C857.440308,415.816498 854.961914,416.286926 851.990906,414.903595 
	C848.680176,413.362061 845.192627,412.155823 842.015381,410.385040 
	C839.116028,408.769196 837.815796,409.919464 836.584900,412.387421 
	C834.261780,417.044983 832.835815,421.989624 831.664307,427.020660 
	C830.451904,432.227417 829.028564,437.373932 826.469666,442.089172 
	C825.091980,444.627960 825.382446,446.361115 827.857239,447.941956 
	C835.139099,452.593506 839.113770,460.067047 843.766541,466.940033 
	C845.342468,469.268127 845.242004,471.695770 843.326660,473.838165 
	C841.658569,475.704071 839.533325,476.708649 837.053772,475.830292 
	C834.203857,474.820740 832.966858,472.483551 832.970398,469.579193 
	C832.978027,463.285187 826.355225,454.757751 820.205688,453.033905 
	C818.523865,452.562469 817.765625,453.471436 816.778137,454.360352 
	C809.171936,461.207245 802.295837,468.767700 797.446655,477.770050 
	C775.954651,517.669434 741.296387,539.901001 698.860291,551.769775 
	C672.716248,559.081909 645.859741,561.009277 618.888245,562.449829 
	C599.370117,563.492249 579.962036,562.420227 560.510010,561.496948 
	C550.165344,561.006042 540.481628,564.419983 530.820862,567.505066 
	C512.528687,573.346497 493.642303,574.704468 474.643005,575.267700 
	C458.481018,575.746887 442.342896,574.722778 426.197632,574.253784 
	C422.216644,574.138123 418.723541,574.733337 415.591064,577.477783 
	C413.611816,579.211853 411.209076,580.520630 408.858032,581.757385 
	C405.914856,583.305664 402.492584,584.234253 403.253235,588.770813 
	C404.038452,593.453857 404.869263,598.025574 410.134125,599.909668 
	C410.602264,600.077148 411.059875,600.285583 411.500153,600.517151 
	C414.003876,601.833984 415.139038,603.962646 414.693512,606.706360 
	C414.245087,609.467773 412.300964,611.079773 409.693878,611.688904 
	C407.093567,612.296326 404.930573,611.094299 403.849152,608.849792 
	C400.976685,602.888367 396.220856,597.842896 395.106232,591.030457 
	C394.729309,588.726624 393.351807,587.877258 391.189270,588.437317 
	C379.348694,591.503601 367.230865,592.208435 355.092285,592.764526 
	C339.896149,593.460754 330.212006,601.696777 324.167023,615.132141 
	C319.861298,624.701965 315.546997,634.258423 312.000031,644.145508 
	C311.043945,646.810486 310.733917,649.271423 312.631958,651.682983 
	C314.366821,653.887146 314.639740,656.297363 312.810974,658.560913 
	C311.106903,660.670044 308.791779,661.609436 306.124939,660.759094 
	C303.254456,659.843811 302.055328,657.632507 301.779327,654.687744 
	C301.226410,648.788330 303.533478,643.513062 305.533051,638.278259 
	C309.752167,627.232727 314.344330,616.333313 320.064423,605.940369 
	C322.491852,601.529968 325.914154,597.908813 329.683472,593.249939 
	C314.991974,586.890259 304.292023,574.552002 288.833710,570.156616 
	C286.046173,569.363953 283.795929,569.094238 281.528687,571.321594 
	C279.759247,573.059875 277.469452,573.608765 275.071960,572.404358 
	C272.421478,571.072815 271.367004,568.608215 270.958954,565.920349 
	C270.547394,563.209473 272.382202,562.108704 274.711121,561.515747 
	C280.923187,559.934082 286.963226,560.807190 292.861969,562.898926 
	C300.286316,565.531494 307.119659,569.290649 313.494781,573.941040 
	C317.529480,576.884155 321.694580,579.662964 325.920532,582.326111 
	C332.089386,586.213684 338.142883,588.495605 346.054871,586.161987 
	C356.250122,583.154846 367.191193,584.083252 377.756775,582.772583 
	C390.138062,581.236755 401.783508,577.732544 412.171570,570.039246 
	C410.603271,565.819519 407.888611,562.366760 406.826904,558.152649 
	C403.703278,545.753845 403.889282,533.455261 407.370819,521.161621 
	C408.217072,518.173340 409.580292,515.986023 412.997650,515.764343 
	C416.064056,515.565369 418.204071,516.966919 419.283752,519.706543 
	C420.535095,522.881836 419.007202,525.289307 416.387421,526.893677 
	C412.854767,529.057068 413.260773,532.450684 413.188446,536.228394 
z"/>
<path fill="#000000" opacity="1.000000" stroke="none" 
	d="
M423.305115,206.315247 
	C426.146729,203.721939 428.723083,201.357986 431.365204,199.069962 
	C433.493622,197.226822 435.381073,195.506836 436.244720,192.457993 
	C437.583954,187.730362 442.457977,185.609772 447.071960,186.963654 
	C451.357239,188.221069 454.213196,192.897751 453.250519,197.081131 
	C452.172913,201.763962 447.929718,205.164276 443.257111,204.044876 
	C439.573273,203.162338 437.380280,204.447830 434.845245,206.619308 
	C425.187927,214.891724 417.906952,225.046768 412.212860,236.212387 
	C401.595276,257.032562 392.480011,278.509064 389.081390,301.857635 
	C386.712280,318.133698 387.784546,334.394287 391.342712,350.447144 
	C392.491852,355.631500 393.306824,360.880341 394.922852,365.987335 
	C396.378601,370.587860 397.071899,375.050720 402.305145,377.585175 
	C405.918823,379.335297 406.440521,384.844208 404.315033,388.291718 
	C402.101135,391.882507 398.893707,393.778992 394.605225,392.665558 
	C390.228851,391.529327 386.705383,388.216400 388.107788,384.040985 
	C390.959534,375.550415 386.939362,368.348816 385.128967,360.858612 
	C380.833313,343.085754 378.727875,325.186157 379.964111,306.955902 
	C380.185913,303.685059 379.232849,301.775452 376.715668,299.848419 
	C353.327576,281.943695 319.481628,282.512177 296.504578,301.200989 
	C284.223297,311.190155 274.972198,323.859619 265.221741,336.089478 
	C260.966583,341.426636 257.084320,347.062225 252.799713,352.374329 
	C250.055054,355.777191 250.183548,358.474365 254.124863,360.410858 
	C271.316833,368.857788 279.644653,383.086456 281.320953,401.708344 
	C281.465454,403.313599 282.434235,404.443115 283.165680,405.736145 
	C284.696075,408.441528 284.237946,410.959503 281.951202,412.926727 
	C279.966583,414.634033 277.624420,415.527161 275.068207,413.956635 
	C272.490021,412.372589 271.536804,410.016693 272.208679,407.105896 
	C274.952942,395.216766 267.901672,378.469788 257.258728,371.548370 
	C253.228348,368.927307 248.533157,367.309326 245.233032,363.579010 
	C243.903809,362.076477 242.576416,362.681610 241.287292,363.683868 
	C228.870819,373.337494 213.988373,376.332947 199.090042,379.234680 
	C196.747742,379.690887 194.695328,380.445618 192.715118,381.830597 
	C189.070694,384.379425 184.876373,383.904114 182.411270,380.814850 
	C179.976105,377.763062 179.321594,374.459106 182.144440,371.303009 
	C185.022766,368.084869 188.619034,366.811462 192.306076,369.669525 
	C194.609787,371.455231 196.677185,371.299408 199.235657,370.896637 
	C206.163559,369.806122 212.999527,368.231873 219.587708,365.972656 
	C228.950073,362.762115 237.344498,358.073761 243.948685,350.140381 
	C251.722244,340.802307 258.652985,330.859222 266.712891,321.268524 
	C262.824432,318.340271 259.188660,315.790039 255.759460,312.987122 
	C241.606720,301.419159 232.138748,286.939514 228.810165,268.778320 
	C228.433365,266.722443 227.118790,265.661316 225.786331,264.412964 
	C222.532928,261.364838 221.815536,257.775970 224.504669,254.144913 
	C226.820145,251.018402 230.156372,249.859787 233.778931,251.857468 
	C237.610519,253.970383 239.216705,257.352875 237.380890,261.547638 
	C235.109772,266.737000 237.325623,271.479279 238.915115,276.006042 
	C244.284683,291.298279 254.229462,303.091125 267.775574,311.953583 
	C270.576660,313.786194 272.689056,314.158051 275.062653,311.308380 
	C285.098114,299.260101 296.620575,289.075134 311.442780,283.218353 
	C314.014496,282.202148 313.639374,280.465942 313.264130,278.334839 
	C309.773956,258.513458 310.358490,238.913040 316.661774,219.645752 
	C317.342865,217.563889 317.978180,215.490417 319.856415,214.142670 
	C322.722870,212.085846 325.688904,212.156647 327.915649,214.816849 
	C330.221649,217.571716 330.405548,221.288361 327.238373,223.127045 
	C323.139984,225.506393 322.412659,229.023361 321.565704,232.981567 
	C318.565002,247.005127 318.296875,261.016266 321.212036,275.078827 
	C321.794342,277.887909 322.329651,280.052338 326.274780,279.429657 
	C345.022919,276.470612 362.309326,280.518707 378.146057,290.916351 
	C379.101562,291.543671 379.936432,292.454651 381.761230,292.254395 
	C390.927124,261.645966 401.218567,231.291931 423.305115,206.315247 
z"/>
<path fill="#000000" opacity="1.000000" stroke="none" 
	d="
M841.820068,624.349731 
	C844.048340,627.660889 843.165161,630.166382 841.050232,632.795044 
	C829.593933,647.033875 814.416565,654.942444 797.033386,659.464355 
	C773.402527,665.611389 750.126282,662.344421 726.888184,657.333740 
	C709.489014,653.582153 692.155579,649.520020 674.726990,645.914551 
	C669.961914,644.928772 665.020752,644.127136 659.269470,644.465942 
	C661.830505,652.819580 663.115723,660.795715 661.471191,668.803223 
	C663.905273,670.441101 666.586365,670.471741 668.417542,672.418335 
	C671.229492,675.407410 672.256226,678.608643 670.444763,682.413269 
	C668.606201,686.274902 665.496033,688.318298 661.222717,687.667847 
	C656.998718,687.025024 653.963562,684.348511 653.881836,680.037537 
	C653.791077,675.249207 652.666016,670.533691 653.558960,665.630554 
	C654.579773,660.024902 653.947083,654.377930 652.011475,648.887512 
	C650.621887,644.945984 648.515442,643.139648 643.978882,643.156738 
	C623.868286,643.232666 604.235657,646.406799 584.742615,651.060059 
	C564.203491,655.962952 543.739807,661.533752 522.546143,662.775269 
	C510.587158,663.475891 498.566467,663.085083 486.575165,663.282898 
	C471.431030,663.532715 456.251526,662.267944 441.148621,664.250244 
	C437.345398,664.749390 433.555237,665.562988 430.091705,667.211609 
	C426.730835,668.811401 423.142822,670.167908 423.700592,675.391296 
	C423.990356,678.104980 421.491821,680.215332 418.703827,680.938171 
	C415.834961,681.681946 413.881836,679.954102 412.575104,677.678955 
	C411.168640,675.230347 411.953003,673.063416 413.587158,670.793762 
	C422.436401,658.503418 435.454926,655.817444 449.283905,655.327515 
	C464.928833,654.773193 480.576813,655.127075 496.235840,655.433105 
	C518.929993,655.876709 541.381409,653.280945 563.485352,647.745667 
	C588.664673,641.440308 613.906067,635.271729 640.092590,635.002808 
	C645.047974,634.951904 649.704529,635.671326 653.418091,630.679993 
	C655.729004,627.573914 659.655823,628.700928 662.020386,632.660950 
	C663.551025,635.224426 665.338196,636.492065 668.257141,636.834229 
	C686.315491,638.951111 703.806885,643.826477 721.476379,647.856567 
	C748.136414,653.937317 774.901184,657.816162 801.844727,649.489563 
	C810.657776,646.765930 818.865723,642.729065 825.940308,636.655579 
	C828.768860,634.227234 831.594116,632.346802 831.187988,627.447815 
	C830.780701,622.534546 836.961548,620.754578 841.820068,624.349731 
z"/>
</svg>